<?xml version="1.0" standalone="no"?>
<!DOCTYPE svg PUBLIC "-//W3C//DTD SVG 20010904//EN"
 "http://www.w3.org/TR/2001/REC-SVG-20010904/DTD/svg10.dtd">
<svg version="1.0" xmlns="http://www.w3.org/2000/svg"
 width="1024.000000pt" height="1024.000000pt" viewBox="0 0 1024.000000 1024.000000"
 preserveAspectRatio="xMidYMid meet">

<g transform="translate(0.000000,1024.000000) scale(0.100000,-0.100000)"
fill="#000000" stroke="none">
<path d="M0 5120 l0 -5120 5120 0 5120 0 0 5120 0 5120 -5120 0 -5120 0 0
-5120z m5540 3500 c52 -7 98 -16 103 -20 7 -6 -35 -316 -45 -326 -3 -2 -34 0
-70 5 -187 30 -599 31 -807 1 -41 -6 -76 -8 -79 -5 -7 7 -52 308 -48 321 2 6
58 16 128 23 67 7 132 14 143 16 47 8 588 -4 675 -15z m-1226 -227 c20 -82 39
-155 41 -163 4 -12 -18 -22 -98 -44 -220 -60 -444 -153 -680 -279 -60 -32
-110 -57 -111 -55 -11 14 -166 277 -166 281 0 10 176 106 302 166 164 78 326
141 478 186 69 20 136 41 150 45 14 5 30 9 36 9 7 1 27 -63 48 -146z m1800
107 c75 -22 192 -61 259 -86 124 -46 502 -228 546 -263 l25 -19 -77 -128 c-42
-71 -81 -135 -86 -143 -7 -11 -21 -7 -72 22 -250 139 -546 260 -777 318 -39
10 -51 17 -47 28 2 9 21 82 41 164 20 81 40 147 44 147 4 0 69 -18 144 -40z
m-584 -545 c632 -100 1178 -374 1616 -810 573 -572 884 -1387 834 -2187 -45
-717 -333 -1360 -835 -1863 -438 -439 -982 -711 -1625 -812 -165 -26 -635 -25
-800 0 -388 61 -764 194 -1059 374 l-63 39 -586 -138 c-322 -75 -587 -136
-589 -135 -1 2 60 266 135 588 l138 586 -63 108 c-166 287 -293 656 -348 1015
-22 145 -31 495 -16 656 62 662 337 1261 796 1733 155 160 285 268 467 390
373 251 796 408 1251 466 153 19 600 14 747 -10z m-2399 -130 c57 -76 98 -139
93 -144 -5 -4 -54 -43 -109 -87 -130 -102 -369 -342 -470 -469 -43 -55 -82
-104 -86 -109 -9 -10 -269 181 -269 198 0 6 42 63 92 126 118 148 370 399 523
522 66 54 121 97 122 98 2 0 48 -61 104 -135z m4362 -100 c146 -132 277 -274
410 -442 l57 -72 -135 -102 c-75 -56 -137 -100 -139 -98 -2 2 -41 51 -87 109
-108 135 -346 374 -474 475 -55 43 -104 82 -109 86 -5 5 36 68 93 144 l101
135 91 -71 c50 -40 136 -113 192 -164z m-5234 -872 c69 -41 127 -77 129 -78 2
-2 -23 -52 -55 -112 -127 -237 -204 -423 -269 -649 -21 -71 -38 -130 -39 -131
0 -1 -74 17 -163 39 l-163 41 6 26 c20 85 92 310 131 409 100 253 254 548 282
537 8 -3 72 -40 141 -82z m5931 -3 c76 -132 171 -337 228 -490 50 -132 127
-388 120 -395 -2 -2 -74 -21 -161 -43 l-158 -40 -9 24 c-5 13 -16 50 -24 81
-52 197 -160 459 -279 676 -32 60 -58 109 -56 111 16 12 276 166 281 166 3 0
30 -40 58 -90z m-6377 -1224 c81 -13 150 -25 153 -28 2 -3 0 -34 -5 -69 -31
-194 -32 -594 -1 -809 6 -40 8 -75 5 -78 -9 -10 -319 -52 -325 -45 -34 39 -51
626 -25 873 9 90 19 168 21 172 7 11 9 11 177 -16z m6806 -81 c29 -207 14
-930 -20 -950 -7 -5 -318 40 -324 47 -2 2 3 60 11 128 9 77 15 211 15 350 0
139 -6 273 -15 350 -8 68 -13 126 -11 129 7 7 277 49 305 47 24 -1 25 -6 39
-101z m-6565 -1287 c60 -218 157 -457 272 -668 l56 -102 -47 -202 c-26 -110
-51 -217 -56 -237 l-9 -36 -162 37 c-143 33 -163 40 -160 56 1 11 19 88 38
173 l36 153 -66 138 c-36 75 -90 200 -121 278 -56 144 -140 420 -131 429 3 4
267 72 316 82 3 1 18 -45 34 -101z m6339 58 c76 -18 140 -36 143 -39 14 -14
-107 -383 -189 -572 -63 -146 -200 -405 -214 -405 -5 0 -266 154 -281 166 -2
1 23 51 55 111 127 238 222 468 279 680 25 93 29 102 48 97 12 -2 83 -20 159
-38z m-566 -1186 l134 -101 -38 -47 c-175 -218 -354 -406 -518 -543 -109 -91
-185 -149 -196 -149 -14 0 -201 262 -193 270 5 4 56 45 114 91 134 106 371
344 475 477 44 56 82 102 84 102 2 0 64 -45 138 -100z m-5769 -371 c78 -18
142 -37 142 -42 0 -5 -34 -155 -76 -333 -42 -179 -74 -327 -71 -330 2 -3 151
29 329 70 179 42 329 76 334 76 8 0 88 -320 81 -326 -1 -2 -162 -39 -357 -84
-311 -72 -364 -82 -425 -78 -166 11 -291 135 -303 301 -4 61 5 110 79 428 78
336 85 360 104 355 11 -2 84 -19 163 -37z m4800 -509 c45 -76 82 -141 82 -143
0 -9 -228 -133 -331 -180 -139 -65 -366 -150 -512 -192 -71 -20 -130 -35 -132
-33 -2 2 -21 74 -43 161 l-40 158 24 9 c13 5 50 16 81 24 206 54 522 187 733
310 25 14 47 26 50 26 3 0 42 -63 88 -140z m-3216 50 c85 -44 201 -99 259
-124 104 -43 353 -128 417 -141 17 -4 32 -12 32 -18 0 -28 -73 -317 -80 -317
-5 0 -62 15 -127 34 -191 55 -367 122 -544 208 l-165 80 -170 -40 c-93 -22
-172 -37 -175 -34 -9 9 -79 315 -74 320 4 4 441 109 462 111 6 1 81 -35 165
-79z m1168 -351 c139 -16 512 -13 660 5 68 8 126 13 129 11 7 -7 51 -309 47
-321 -13 -36 -671 -54 -924 -25 -67 8 -125 18 -128 22 -4 7 28 244 42 307 4
21 9 23 42 18 20 -3 80 -11 132 -17z"/>
</g>
</svg>
