<svg xmlns="http://www.w3.org/2000/svg" width="1024" height="1024" viewBox="0 0 1024 1024" version="1.1"><path d="M 481 161.402 C 473.575 162.120, 465.589 163.038, 463.253 163.441 C 459.562 164.079, 459.071 164.458, 459.500 166.337 C 459.772 167.527, 460.915 174.557, 462.040 181.960 C 463.165 189.362, 464.280 195.613, 464.516 195.850 C 464.753 196.086, 470.696 195.654, 477.723 194.890 C 484.852 194.114, 500.447 193.508, 513 193.518 C 525.375 193.528, 540.807 194.147, 547.293 194.892 C 553.779 195.638, 559.282 196.051, 559.523 195.811 C 559.763 195.570, 561.023 188.342, 562.322 179.748 C 564.685 164.123, 564.685 164.123, 561.093 163.528 C 559.117 163.201, 553.900 162.495, 549.500 161.958 C 545.100 161.421, 530.925 160.782, 518 160.539 C 502.847 160.253, 489.705 160.560, 481 161.402 M 420 172.134 C 418.075 172.658, 410.888 174.906, 404.028 177.129 C 397.169 179.351, 387.494 182.752, 382.528 184.686 C 377.563 186.620, 366.750 191.466, 358.500 195.456 C 350.250 199.445, 340.477 204.482, 336.782 206.649 C 330.065 210.590, 330.065 210.590, 338.558 224.749 C 347.051 238.907, 347.051 238.907, 353.253 235.272 C 356.665 233.273, 366.216 228.388, 374.478 224.418 C 382.740 220.448, 395.194 215.143, 402.153 212.629 C 409.112 210.115, 419.237 206.834, 424.653 205.336 C 430.069 203.839, 434.672 202.491, 434.883 202.341 C 435.093 202.191, 433.596 195.078, 431.556 186.534 C 428.157 172.300, 427.664 171.008, 425.673 171.090 C 424.478 171.140, 421.925 171.609, 420 172.134 M 592.610 185.813 C 590.625 194.082, 589 201.282, 589 201.812 C 589 202.343, 590.624 203.082, 592.608 203.454 C 594.593 203.827, 602.422 206.129, 610.006 208.572 C 617.591 211.014, 628.169 214.832, 633.514 217.057 C 638.859 219.281, 648.487 223.735, 654.910 226.955 C 661.332 230.174, 668.913 234.180, 671.755 235.855 C 676.923 238.902, 676.923 238.902, 685.519 224.854 C 693.550 211.730, 693.997 210.716, 692.308 209.448 C 691.314 208.701, 682.625 204.063, 673 199.141 C 663.375 194.219, 649.200 187.713, 641.500 184.684 C 633.800 181.655, 622.129 177.554, 615.564 175.570 C 609 173.587, 601.962 171.698, 599.924 171.372 C 596.220 170.780, 596.220 170.780, 592.610 185.813 M 490.500 226.631 C 487.750 226.858, 480.325 227.731, 474 228.571 C 467.675 229.410, 457.325 231.245, 451 232.648 C 444.675 234.052, 434.459 236.725, 428.298 238.589 C 422.137 240.453, 412.462 243.815, 406.798 246.061 C 401.134 248.307, 390.821 252.990, 383.880 256.469 C 376.939 259.947, 366.735 265.618, 361.204 269.070 C 355.673 272.522, 346.761 278.633, 341.400 282.650 C 336.038 286.667, 326.988 294.066, 321.288 299.093 C 315.588 304.119, 306.994 312.567, 302.189 317.865 C 297.384 323.164, 290.764 330.875, 287.478 335 C 284.193 339.125, 277.738 348.125, 273.134 355 C 268.531 361.875, 260.794 375.600, 255.943 385.500 C 251.091 395.400, 245.108 409.125, 242.648 416 C 240.188 422.875, 236.578 435.025, 234.626 443 C 232.673 450.975, 230.159 463.843, 229.038 471.597 C 227.917 479.350, 226.716 493.075, 226.369 502.097 C 225.987 512.036, 226.211 524.214, 226.939 533 C 227.599 540.975, 229.019 552.675, 230.093 559 C 231.168 565.325, 233.368 575.675, 234.983 582 C 236.598 588.325, 239.450 598, 241.321 603.500 C 243.191 609, 246.368 617.464, 248.381 622.309 C 250.393 627.154, 254.042 635.106, 256.490 639.980 C 258.938 644.855, 262.971 652.276, 265.451 656.471 C 269.961 664.100, 269.961 664.100, 256.386 722.122 C 248.919 754.034, 243.046 780.379, 243.333 780.667 C 243.621 780.954, 269.960 775.082, 301.863 767.618 C 359.871 754.046, 359.871 754.046, 366.259 757.927 C 369.773 760.062, 378.015 764.495, 384.574 767.778 C 391.133 771.062, 401.675 775.791, 408 778.288 C 414.325 780.785, 425.052 784.441, 431.837 786.413 C 438.623 788.385, 448.748 790.933, 454.337 792.075 C 459.927 793.218, 469.225 794.800, 475 795.592 C 480.775 796.384, 493.375 797.312, 503 797.654 C 513.832 798.039, 525.834 797.813, 534.500 797.061 C 542.200 796.394, 553.675 794.973, 560 793.904 C 566.325 792.835, 577.350 790.423, 584.500 788.544 C 591.650 786.665, 601.535 783.702, 606.467 781.959 C 611.399 780.216, 620.624 776.569, 626.967 773.853 C 633.310 771.138, 643.434 766.192, 649.465 762.863 C 655.496 759.534, 664.852 753.894, 670.258 750.330 C 675.663 746.766, 684.679 740.197, 690.293 735.732 C 695.907 731.268, 705.392 722.864, 711.370 717.058 C 717.349 711.251, 725.833 702.225, 730.224 697 C 734.616 691.775, 741.271 683.225, 745.015 678 C 748.759 672.775, 754.637 663.775, 758.077 658 C 761.517 652.225, 766.728 642.482, 769.655 636.348 C 772.583 630.214, 776.802 620.539, 779.030 614.848 C 781.259 609.157, 784.657 599.107, 786.583 592.515 C 788.508 585.923, 791.209 574.972, 792.584 568.180 C 793.959 561.388, 795.788 549.231, 796.647 541.165 C 797.794 530.400, 798.069 520.783, 797.679 505 C 797.332 490.934, 796.445 478.905, 795.114 470.211 C 793.996 462.902, 791.929 452.102, 790.520 446.211 C 789.112 440.320, 786.349 430.550, 784.379 424.500 C 782.410 418.450, 778.788 408.567, 776.331 402.537 C 773.874 396.507, 769.379 386.715, 766.341 380.776 C 763.304 374.838, 757.524 364.827, 753.498 358.530 C 749.472 352.233, 742.650 342.470, 738.339 336.835 C 734.028 331.200, 725.100 320.986, 718.500 314.138 C 711.900 307.290, 702.033 297.937, 696.573 293.354 C 691.113 288.770, 681.888 281.690, 676.073 277.620 C 670.258 273.550, 660.162 267.174, 653.637 263.451 C 647.112 259.728, 636.537 254.343, 630.137 251.485 C 623.737 248.628, 613.307 244.468, 606.960 242.242 C 600.613 240.015, 589.019 236.585, 581.197 234.619 C 573.374 232.653, 560.792 230.112, 553.237 228.974 C 543.476 227.502, 533.132 226.804, 517.500 226.560 C 505.400 226.371, 493.250 226.403, 490.500 226.631 M 291.853 237.182 C 286.159 241.683, 273.370 253.495, 263.432 263.432 C 253.495 273.370, 241.683 286.159, 237.182 291.853 C 232.682 297.547, 229.019 302.497, 229.043 302.853 C 229.066 303.209, 234.683 307.663, 241.525 312.750 C 248.367 317.838, 254.385 322, 254.899 322 C 255.413 322, 258.733 318.288, 262.276 313.750 C 265.820 309.212, 272.709 301.225, 277.585 296 C 282.462 290.775, 290.738 282.504, 295.976 277.620 C 301.214 272.736, 309.212 265.836, 313.750 262.287 C 318.288 258.738, 322 255.413, 322 254.899 C 322 254.385, 317.837 248.367, 312.750 241.525 C 307.663 234.683, 303.209 229.066, 302.853 229.043 C 302.497 229.019, 297.547 232.682, 291.853 237.182 M 711.250 241.525 C 706.163 248.367, 702 254.350, 702 254.821 C 702 255.292, 705.712 258.630, 710.250 262.240 C 714.788 265.849, 722.656 272.595, 727.735 277.232 C 732.815 281.868, 741.080 290.125, 746.102 295.581 C 751.124 301.036, 758.143 309.212, 761.700 313.750 C 765.256 318.288, 768.587 322, 769.101 322 C 769.615 322, 775.633 317.837, 782.475 312.750 C 789.317 307.663, 794.934 303.209, 794.957 302.853 C 794.981 302.497, 791.313 297.547, 786.806 291.853 C 782.299 286.159, 770.486 273.375, 760.556 263.444 C 750.625 253.514, 737.841 241.701, 732.147 237.194 C 726.453 232.687, 721.503 229.019, 721.147 229.043 C 720.791 229.066, 716.337 234.683, 711.250 241.525 M 205.750 338.334 C 203.181 342.825, 197.963 353.025, 194.156 361 C 190.349 368.975, 185.132 381.118, 182.563 387.985 C 179.993 394.851, 176.341 405.805, 174.446 412.326 C 172.551 418.847, 171 424.967, 171 425.927 C 171 427.349, 173.818 428.350, 186.250 431.347 C 194.637 433.369, 201.787 435.018, 202.139 435.012 C 202.490 435.005, 203.082 433.376, 203.454 431.392 C 203.827 429.407, 206.129 421.578, 208.572 413.994 C 211.014 406.409, 214.832 395.831, 217.057 390.486 C 219.281 385.141, 223.735 375.513, 226.955 369.090 C 230.174 362.668, 234.189 355.072, 235.876 352.211 C 238.943 347.009, 238.943 347.009, 236.721 345.638 C 235.500 344.884, 230.450 341.800, 225.500 338.785 C 220.550 335.770, 215.133 332.598, 213.461 331.735 C 210.423 330.167, 210.423 330.167, 205.750 338.334 M 799.226 338.573 C 785.085 347.055, 785.085 347.055, 788.138 352.234 C 789.818 355.083, 793.881 362.777, 797.167 369.334 C 800.454 375.890, 805.088 386.035, 807.465 391.877 C 809.842 397.720, 813.598 408.125, 815.813 415 C 818.028 421.875, 820.151 429.188, 820.531 431.250 C 820.911 433.313, 821.510 435.010, 821.861 435.021 C 822.213 435.033, 829.362 433.360, 837.750 431.304 C 849.932 428.317, 853 427.225, 853 425.874 C 853 424.944, 851.449 418.847, 849.554 412.326 C 847.659 405.805, 844.012 394.851, 841.450 387.985 C 838.888 381.118, 833.084 367.850, 828.553 358.500 C 824.022 349.150, 818.752 338.933, 816.841 335.795 C 813.368 330.090, 813.368 330.090, 799.226 338.573 M 163.620 462.296 C 163.298 464.058, 162.485 470, 161.813 475.500 C 161.133 481.065, 160.591 497.254, 160.591 512 C 160.591 526.746, 161.133 542.935, 161.813 548.500 C 162.485 554, 163.288 559.890, 163.598 561.588 C 164.162 564.676, 164.162 564.676, 179.729 562.357 C 188.290 561.082, 195.517 559.817, 195.788 559.546 C 196.058 559.275, 195.654 553.304, 194.890 546.277 C 194.125 539.250, 193.500 523.825, 193.500 512 C 193.500 500.175, 194.125 484.750, 194.890 477.723 C 195.654 470.696, 196.083 464.749, 195.842 464.508 C 195.601 464.267, 189.575 463.161, 182.452 462.051 C 175.328 460.940, 168.309 459.820, 166.853 459.561 C 164.525 459.148, 164.135 459.478, 163.620 462.296 M 843.592 461.611 C 835.393 462.915, 828.467 464.200, 828.202 464.465 C 827.937 464.730, 828.346 470.696, 829.110 477.723 C 829.875 484.750, 830.500 500.175, 830.500 512 C 830.500 523.825, 829.875 539.250, 829.110 546.277 C 828.346 553.304, 827.917 559.250, 828.158 559.491 C 828.399 559.732, 835.627 560.990, 844.220 562.287 C 859.844 564.644, 859.844 564.644, 860.405 561.572 C 860.713 559.882, 861.510 554, 862.175 548.500 C 862.840 543, 863.391 526.575, 863.400 512 C 863.409 497.086, 862.880 481.128, 862.191 475.500 C 861.517 470, 860.698 464.038, 860.372 462.250 C 860.045 460.462, 859.490 459.054, 859.139 459.119 C 858.787 459.185, 851.791 460.306, 843.592 461.611 M 184.645 592.738 C 170.790 596.287, 170.790 596.287, 171.397 600.080 C 171.730 602.166, 174.249 610.810, 176.994 619.288 C 179.739 627.766, 184.223 640.147, 186.958 646.800 C 189.693 653.454, 194.338 663.696, 197.280 669.561 C 202.630 680.224, 202.630 680.224, 198.703 697.167 C 196.544 706.486, 195.005 714.339, 195.284 714.618 C 195.564 714.897, 202.622 716.714, 210.970 718.655 C 219.318 720.597, 226.351 721.982, 226.599 721.734 C 226.847 721.486, 229.446 711.002, 232.374 698.436 C 237.698 675.589, 237.698 675.589, 229.872 660.498 C 225.568 652.198, 220.028 640.589, 217.561 634.701 C 215.095 628.813, 211.064 617.745, 208.604 610.106 C 206.144 602.467, 203.827 594.593, 203.454 592.608 C 202.919 589.754, 202.331 589.020, 200.639 589.095 C 199.462 589.147, 192.265 590.786, 184.645 592.738 M 818.820 598.830 C 817.345 604.230, 814.038 614.465, 811.470 621.574 C 808.902 628.683, 803.552 641.260, 799.582 649.522 C 795.612 657.784, 790.727 667.335, 788.728 670.747 C 785.093 676.949, 785.093 676.949, 799.251 685.442 C 813.410 693.935, 813.410 693.935, 817.354 687.218 C 819.523 683.523, 824.780 673.300, 829.037 664.500 C 833.294 655.700, 838.839 642.875, 841.359 636 C 843.880 629.125, 847.313 619.033, 848.988 613.574 C 850.662 608.115, 852.297 601.995, 852.620 599.974 C 853.208 596.300, 853.208 596.300, 838.627 592.650 C 830.607 590.643, 823.473 589.002, 822.773 589.006 C 822.012 589.009, 820.421 592.962, 818.820 598.830 M 762.552 709.250 C 759.477 713.237, 752.582 721.225, 747.230 727 C 741.879 732.775, 733 741.652, 727.500 746.727 C 722 751.802, 714.013 758.714, 709.750 762.088 C 705.487 765.462, 702 768.574, 702 769.003 C 702 769.432, 706.093 775.344, 711.095 782.141 C 716.097 788.939, 720.352 794.668, 720.551 794.872 C 720.749 795.077, 725.769 791.477, 731.706 786.872 C 737.643 782.268, 750.403 770.625, 760.063 761 C 769.723 751.375, 781.535 738.579, 786.313 732.565 C 791.091 726.551, 794.981 721.376, 794.957 721.065 C 794.934 720.754, 789.317 716.337, 782.475 711.250 C 775.633 706.163, 769.610 702, 769.090 702 C 768.570 702, 765.628 705.263, 762.552 709.250 M 187.484 745.377 C 187.288 745.995, 183.442 762.412, 178.935 781.859 C 172.097 811.371, 170.830 818.151, 171.275 822.859 C 171.568 825.962, 172.729 830.624, 173.855 833.220 C 174.981 835.816, 177.773 839.968, 180.059 842.448 C 182.344 844.927, 186.754 848.172, 189.857 849.658 C 194.369 851.819, 197.004 852.375, 203 852.430 C 208.996 852.486, 217.368 850.907, 244.750 844.555 C 271.702 838.303, 278.997 836.279, 278.987 835.055 C 278.980 834.200, 277.472 827.079, 275.636 819.232 C 273.800 811.385, 272.118 804.790, 271.899 804.577 C 271.679 804.364, 256.425 807.704, 238 812 C 219.575 816.296, 204.417 819.733, 204.316 819.638 C 204.215 819.543, 207.496 805.074, 211.606 787.483 C 215.717 769.892, 219.174 754.657, 219.290 753.626 C 219.472 751.998, 217.416 751.258, 203.670 748.003 C 192.956 745.466, 187.725 744.618, 187.484 745.377 M 672.500 787.693 C 670.300 789.008, 662.702 793.023, 655.616 796.616 C 648.531 800.209, 637.956 805.092, 632.116 807.467 C 626.277 809.843, 615.875 813.598, 609 815.813 C 602.125 818.028, 594.813 820.151, 592.750 820.531 C 590.688 820.911, 589 821.633, 589 822.134 C 589 822.636, 590.643 829.673, 592.651 837.773 C 594.659 845.873, 596.456 852.685, 596.645 852.911 C 596.833 853.136, 599.504 852.758, 602.579 852.070 C 605.654 851.382, 613.644 849.019, 620.335 846.820 C 627.026 844.620, 638.125 840.547, 645 837.769 C 651.875 834.991, 662.225 830.350, 668 827.456 C 673.775 824.563, 681.968 820.209, 686.207 817.782 C 693.915 813.368, 693.915 813.368, 685.873 799.934 C 681.449 792.545, 677.531 786.231, 677.165 785.901 C 676.799 785.572, 674.700 786.379, 672.500 787.693 M 325.580 791.572 C 312.973 794.561, 302.438 797.229, 302.167 797.500 C 301.896 797.771, 303.197 804.796, 305.058 813.112 C 306.919 821.428, 308.962 828.432, 309.597 828.676 C 310.232 828.919, 317.624 827.517, 326.023 825.559 C 334.423 823.602, 342.002 822, 342.866 822 C 343.731 822, 349.852 824.675, 356.469 827.945 C 363.086 831.215, 374.213 836.153, 381.197 838.919 C 388.180 841.685, 400.330 845.942, 408.197 848.379 C 416.063 850.815, 423.592 852.964, 424.928 853.155 C 427.269 853.488, 427.491 852.965, 431.154 838.500 C 433.243 830.250, 434.790 823.036, 434.592 822.469 C 434.393 821.901, 431.816 820.825, 428.865 820.077 C 425.914 819.329, 417.875 816.821, 411 814.504 C 404.125 812.187, 394.544 808.645, 389.710 806.634 C 384.875 804.622, 376.078 800.548, 370.160 797.580 C 364.242 794.612, 357.040 790.792, 354.156 789.092 C 351.272 787.391, 348.819 786.031, 348.706 786.068 C 348.593 786.106, 338.186 788.582, 325.580 791.572 M 463.944 829.105 C 463.914 829.872, 462.845 837.025, 461.569 845 C 460.294 852.975, 459.319 859.588, 459.404 859.695 C 459.488 859.803, 462.470 860.341, 466.029 860.890 C 469.588 861.440, 479.700 862.425, 488.500 863.080 C 498.144 863.797, 511.650 864.019, 522.500 863.639 C 532.400 863.291, 544.550 862.546, 549.500 861.983 C 554.450 861.420, 559.890 860.707, 561.590 860.398 C 564.679 859.838, 564.679 859.838, 562.319 844.232 C 561.022 835.649, 559.745 828.412, 559.483 828.150 C 559.221 827.888, 553.943 828.227, 547.753 828.904 C 541.564 829.581, 529.300 830.386, 520.500 830.692 C 511.700 830.999, 498.425 830.750, 491 830.139 C 483.575 829.528, 474.462 828.731, 470.750 828.369 C 465.341 827.842, 463.989 827.988, 463.944 829.105" stroke="none" fill="#fbfbfb" fill-rule="evenodd"/><path d="M 0 512.001 C 0 1024.002, 0 1024.002, 512.250 1023.751 C 1024.500 1023.500, 1024.500 1023.500, 1024.751 511.750 C 1025.002 0, 1025.002 0, 512.501 0 C 0 0, 0 0, 0 512.001 M 0.496 512.500 C 0.496 794.100, 0.610 909.151, 0.750 768.168 C 0.890 627.186, 0.890 396.786, 0.750 256.168 C 0.610 115.551, 0.496 230.900, 0.496 512.500 M 481 161.402 C 473.575 162.120, 465.589 163.038, 463.253 163.441 C 459.562 164.079, 459.071 164.458, 459.500 166.337 C 459.772 167.527, 460.915 174.557, 462.040 181.960 C 463.165 189.362, 464.280 195.613, 464.516 195.850 C 464.753 196.086, 470.696 195.654, 477.723 194.890 C 484.852 194.114, 500.447 193.508, 513 193.518 C 525.375 193.528, 540.807 194.147, 547.293 194.892 C 553.779 195.638, 559.282 196.051, 559.523 195.811 C 559.763 195.570, 561.023 188.342, 562.322 179.748 C 564.685 164.123, 564.685 164.123, 561.093 163.528 C 559.117 163.201, 553.900 162.495, 549.500 161.958 C 545.100 161.421, 530.925 160.782, 518 160.539 C 502.847 160.253, 489.705 160.560, 481 161.402 M 420 172.134 C 418.075 172.658, 410.888 174.906, 404.028 177.129 C 397.169 179.351, 387.494 182.752, 382.528 184.686 C 377.563 186.620, 366.750 191.466, 358.500 195.456 C 350.250 199.445, 340.477 204.482, 336.782 206.649 C 330.065 210.590, 330.065 210.590, 338.558 224.749 C 347.051 238.907, 347.051 238.907, 353.253 235.272 C 356.665 233.273, 366.216 228.388, 374.478 224.418 C 382.740 220.448, 395.194 215.143, 402.153 212.629 C 409.112 210.115, 419.237 206.834, 424.653 205.336 C 430.069 203.839, 434.672 202.491, 434.883 202.341 C 435.093 202.191, 433.596 195.078, 431.556 186.534 C 428.157 172.300, 427.664 171.008, 425.673 171.090 C 424.478 171.140, 421.925 171.609, 420 172.134 M 592.610 185.813 C 590.625 194.082, 589 201.282, 589 201.812 C 589 202.343, 590.624 203.082, 592.608 203.454 C 594.593 203.827, 602.422 206.129, 610.006 208.572 C 617.591 211.014, 628.169 214.832, 633.514 217.057 C 638.859 219.281, 648.487 223.735, 654.910 226.955 C 661.332 230.174, 668.913 234.180, 671.755 235.855 C 676.923 238.902, 676.923 238.902, 685.519 224.854 C 693.550 211.730, 693.997 210.716, 692.308 209.448 C 691.314 208.701, 682.625 204.063, 673 199.141 C 663.375 194.219, 649.200 187.713, 641.500 184.684 C 633.800 181.655, 622.129 177.554, 615.564 175.570 C 609 173.587, 601.962 171.698, 599.924 171.372 C 596.220 170.780, 596.220 170.780, 592.610 185.813 M 490.500 226.631 C 487.750 226.858, 480.325 227.731, 474 228.571 C 467.675 229.410, 457.325 231.245, 451 232.648 C 444.675 234.052, 434.459 236.725, 428.298 238.589 C 422.137 240.453, 412.462 243.815, 406.798 246.061 C 401.134 248.307, 390.821 252.990, 383.880 256.469 C 376.939 259.947, 366.735 265.618, 361.204 269.070 C 355.673 272.522, 346.761 278.633, 341.400 282.650 C 336.038 286.667, 326.988 294.066, 321.288 299.093 C 315.588 304.119, 306.994 312.567, 302.189 317.865 C 297.384 323.164, 290.764 330.875, 287.478 335 C 284.193 339.125, 277.738 348.125, 273.134 355 C 268.531 361.875, 260.794 375.600, 255.943 385.500 C 251.091 395.400, 245.108 409.125, 242.648 416 C 240.188 422.875, 236.578 435.025, 234.626 443 C 232.673 450.975, 230.159 463.843, 229.038 471.597 C 227.917 479.350, 226.716 493.075, 226.369 502.097 C 225.987 512.036, 226.211 524.214, 226.939 533 C 227.599 540.975, 229.019 552.675, 230.093 559 C 231.168 565.325, 233.368 575.675, 234.983 582 C 236.598 588.325, 239.450 598, 241.321 603.500 C 243.191 609, 246.368 617.464, 248.381 622.309 C 250.393 627.154, 254.042 635.106, 256.490 639.980 C 258.938 644.855, 262.971 652.276, 265.451 656.471 C 269.961 664.100, 269.961 664.100, 256.386 722.122 C 248.919 754.034, 243.046 780.379, 243.333 780.667 C 243.621 780.954, 269.960 775.082, 301.863 767.618 C 359.871 754.046, 359.871 754.046, 366.259 757.927 C 369.773 760.062, 378.015 764.495, 384.574 767.778 C 391.133 771.062, 401.675 775.791, 408 778.288 C 414.325 780.785, 425.052 784.441, 431.837 786.413 C 438.623 788.385, 448.748 790.933, 454.337 792.075 C 459.927 793.218, 469.225 794.800, 475 795.592 C 480.775 796.384, 493.375 797.312, 503 797.654 C 513.832 798.039, 525.834 797.813, 534.500 797.061 C 542.200 796.394, 553.675 794.973, 560 793.904 C 566.325 792.835, 577.350 790.423, 584.500 788.544 C 591.650 786.665, 601.535 783.702, 606.467 781.959 C 611.399 780.216, 620.624 776.569, 626.967 773.853 C 633.310 771.138, 643.434 766.192, 649.465 762.863 C 655.496 759.534, 664.852 753.894, 670.258 750.330 C 675.663 746.766, 684.679 740.197, 690.293 735.732 C 695.907 731.268, 705.392 722.864, 711.370 717.058 C 717.349 711.251, 725.833 702.225, 730.224 697 C 734.616 691.775, 741.271 683.225, 745.015 678 C 748.759 672.775, 754.637 663.775, 758.077 658 C 761.517 652.225, 766.728 642.482, 769.655 636.348 C 772.583 630.214, 776.802 620.539, 779.030 614.848 C 781.259 609.157, 784.657 599.107, 786.583 592.515 C 788.508 585.923, 791.209 574.972, 792.584 568.180 C 793.959 561.388, 795.788 549.231, 796.647 541.165 C 797.794 530.400, 798.069 520.783, 797.679 505 C 797.332 490.934, 796.445 478.905, 795.114 470.211 C 793.996 462.902, 791.929 452.102, 790.520 446.211 C 789.112 440.320, 786.349 430.550, 784.379 424.500 C 782.410 418.450, 778.788 408.567, 776.331 402.537 C 773.874 396.507, 769.379 386.715, 766.341 380.776 C 763.304 374.838, 757.524 364.827, 753.498 358.530 C 749.472 352.233, 742.650 342.470, 738.339 336.835 C 734.028 331.200, 725.100 320.986, 718.500 314.138 C 711.900 307.290, 702.033 297.937, 696.573 293.354 C 691.113 288.770, 681.888 281.690, 676.073 277.620 C 670.258 273.550, 660.162 267.174, 653.637 263.451 C 647.112 259.728, 636.537 254.343, 630.137 251.485 C 623.737 248.628, 613.307 244.468, 606.960 242.242 C 600.613 240.015, 589.019 236.585, 581.197 234.619 C 573.374 232.653, 560.792 230.112, 553.237 228.974 C 543.476 227.502, 533.132 226.804, 517.500 226.560 C 505.400 226.371, 493.250 226.403, 490.500 226.631 M 291.853 237.182 C 286.159 241.683, 273.370 253.495, 263.432 263.432 C 253.495 273.370, 241.683 286.159, 237.182 291.853 C 232.682 297.547, 229.019 302.497, 229.043 302.853 C 229.066 303.209, 234.683 307.663, 241.525 312.750 C 248.367 317.838, 254.385 322, 254.899 322 C 255.413 322, 258.733 318.288, 262.276 313.750 C 265.820 309.212, 272.709 301.225, 277.585 296 C 282.462 290.775, 290.738 282.504, 295.976 277.620 C 301.214 272.736, 309.212 265.836, 313.750 262.287 C 318.288 258.738, 322 255.413, 322 254.899 C 322 254.385, 317.837 248.367, 312.750 241.525 C 307.663 234.683, 303.209 229.066, 302.853 229.043 C 302.497 229.019, 297.547 232.682, 291.853 237.182 M 711.250 241.525 C 706.163 248.367, 702 254.350, 702 254.821 C 702 255.292, 705.712 258.630, 710.250 262.240 C 714.788 265.849, 722.656 272.595, 727.735 277.232 C 732.815 281.868, 741.080 290.125, 746.102 295.581 C 751.124 301.036, 758.143 309.212, 761.700 313.750 C 765.256 318.288, 768.587 322, 769.101 322 C 769.615 322, 775.633 317.837, 782.475 312.750 C 789.317 307.663, 794.934 303.209, 794.957 302.853 C 794.981 302.497, 791.313 297.547, 786.806 291.853 C 782.299 286.159, 770.486 273.375, 760.556 263.444 C 750.625 253.514, 737.841 241.701, 732.147 237.194 C 726.453 232.687, 721.503 229.019, 721.147 229.043 C 720.791 229.066, 716.337 234.683, 711.250 241.525 M 205.750 338.334 C 203.181 342.825, 197.963 353.025, 194.156 361 C 190.349 368.975, 185.132 381.118, 182.563 387.985 C 179.993 394.851, 176.341 405.805, 174.446 412.326 C 172.551 418.847, 171 424.967, 171 425.927 C 171 427.349, 173.818 428.350, 186.250 431.347 C 194.637 433.369, 201.787 435.018, 202.139 435.012 C 202.490 435.005, 203.082 433.376, 203.454 431.392 C 203.827 429.407, 206.129 421.578, 208.572 413.994 C 211.014 406.409, 214.832 395.831, 217.057 390.486 C 219.281 385.141, 223.735 375.513, 226.955 369.090 C 230.174 362.668, 234.189 355.072, 235.876 352.211 C 238.943 347.009, 238.943 347.009, 236.721 345.638 C 235.500 344.884, 230.450 341.800, 225.500 338.785 C 220.550 335.770, 215.133 332.598, 213.461 331.735 C 210.423 330.167, 210.423 330.167, 205.750 338.334 M 799.226 338.573 C 785.085 347.055, 785.085 347.055, 788.138 352.234 C 789.818 355.083, 793.881 362.777, 797.167 369.334 C 800.454 375.890, 805.088 386.035, 807.465 391.877 C 809.842 397.720, 813.598 408.125, 815.813 415 C 818.028 421.875, 820.151 429.188, 820.531 431.250 C 820.911 433.313, 821.510 435.010, 821.861 435.021 C 822.213 435.033, 829.362 433.360, 837.750 431.304 C 849.932 428.317, 853 427.225, 853 425.874 C 853 424.944, 851.449 418.847, 849.554 412.326 C 847.659 405.805, 844.012 394.851, 841.450 387.985 C 838.888 381.118, 833.084 367.850, 828.553 358.500 C 824.022 349.150, 818.752 338.933, 816.841 335.795 C 813.368 330.090, 813.368 330.090, 799.226 338.573 M 163.620 462.296 C 163.298 464.058, 162.485 470, 161.813 475.500 C 161.133 481.065, 160.591 497.254, 160.591 512 C 160.591 526.746, 161.133 542.935, 161.813 548.500 C 162.485 554, 163.288 559.890, 163.598 561.588 C 164.162 564.676, 164.162 564.676, 179.729 562.357 C 188.290 561.082, 195.517 559.817, 195.788 559.546 C 196.058 559.275, 195.654 553.304, 194.890 546.277 C 194.125 539.250, 193.500 523.825, 193.500 512 C 193.500 500.175, 194.125 484.750, 194.890 477.723 C 195.654 470.696, 196.083 464.749, 195.842 464.508 C 195.601 464.267, 189.575 463.161, 182.452 462.051 C 175.328 460.940, 168.309 459.820, 166.853 459.561 C 164.525 459.148, 164.135 459.478, 163.620 462.296 M 843.592 461.611 C 835.393 462.915, 828.467 464.200, 828.202 464.465 C 827.937 464.730, 828.346 470.696, 829.110 477.723 C 829.875 484.750, 830.500 500.175, 830.500 512 C 830.500 523.825, 829.875 539.250, 829.110 546.277 C 828.346 553.304, 827.917 559.250, 828.158 559.491 C 828.399 559.732, 835.627 560.990, 844.220 562.287 C 859.844 564.644, 859.844 564.644, 860.405 561.572 C 860.713 559.882, 861.510 554, 862.175 548.500 C 862.840 543, 863.391 526.575, 863.400 512 C 863.409 497.086, 862.880 481.128, 862.191 475.500 C 861.517 470, 860.698 464.038, 860.372 462.250 C 860.045 460.462, 859.490 459.054, 859.139 459.119 C 858.787 459.185, 851.791 460.306, 843.592 461.611 M 184.645 592.738 C 170.790 596.287, 170.790 596.287, 171.397 600.080 C 171.730 602.166, 174.249 610.810, 176.994 619.288 C 179.739 627.766, 184.223 640.147, 186.958 646.800 C 189.693 653.454, 194.338 663.696, 197.280 669.561 C 202.630 680.224, 202.630 680.224, 198.703 697.167 C 196.544 706.486, 195.005 714.339, 195.284 714.618 C 195.564 714.897, 202.622 716.714, 210.970 718.655 C 219.318 720.597, 226.351 721.982, 226.599 721.734 C 226.847 721.486, 229.446 711.002, 232.374 698.436 C 237.698 675.589, 237.698 675.589, 229.872 660.498 C 225.568 652.198, 220.028 640.589, 217.561 634.701 C 215.095 628.813, 211.064 617.745, 208.604 610.106 C 206.144 602.467, 203.827 594.593, 203.454 592.608 C 202.919 589.754, 202.331 589.020, 200.639 589.095 C 199.462 589.147, 192.265 590.786, 184.645 592.738 M 818.820 598.830 C 817.345 604.230, 814.038 614.465, 811.470 621.574 C 808.902 628.683, 803.552 641.260, 799.582 649.522 C 795.612 657.784, 790.727 667.335, 788.728 670.747 C 785.093 676.949, 785.093 676.949, 799.251 685.442 C 813.410 693.935, 813.410 693.935, 817.354 687.218 C 819.523 683.523, 824.780 673.300, 829.037 664.500 C 833.294 655.700, 838.839 642.875, 841.359 636 C 843.880 629.125, 847.313 619.033, 848.988 613.574 C 850.662 608.115, 852.297 601.995, 852.620 599.974 C 853.208 596.300, 853.208 596.300, 838.627 592.650 C 830.607 590.643, 823.473 589.002, 822.773 589.006 C 822.012 589.009, 820.421 592.962, 818.820 598.830 M 762.552 709.250 C 759.477 713.237, 752.582 721.225, 747.230 727 C 741.879 732.775, 733 741.652, 727.500 746.727 C 722 751.802, 714.013 758.714, 709.750 762.088 C 705.487 765.462, 702 768.574, 702 769.003 C 702 769.432, 706.093 775.344, 711.095 782.141 C 716.097 788.939, 720.352 794.668, 720.551 794.872 C 720.749 795.077, 725.769 791.477, 731.706 786.872 C 737.643 782.268, 750.403 770.625, 760.063 761 C 769.723 751.375, 781.535 738.579, 786.313 732.565 C 791.091 726.551, 794.981 721.376, 794.957 721.065 C 794.934 720.754, 789.317 716.337, 782.475 711.250 C 775.633 706.163, 769.610 702, 769.090 702 C 768.570 702, 765.628 705.263, 762.552 709.250 M 187.484 745.377 C 187.288 745.995, 183.442 762.412, 178.935 781.859 C 172.097 811.371, 170.830 818.151, 171.275 822.859 C 171.568 825.962, 172.729 830.624, 173.855 833.220 C 174.981 835.816, 177.773 839.968, 180.059 842.448 C 182.344 844.927, 186.754 848.172, 189.857 849.658 C 194.369 851.819, 197.004 852.375, 203 852.430 C 208.996 852.486, 217.368 850.907, 244.750 844.555 C 271.702 838.303, 278.997 836.279, 278.987 835.055 C 278.980 834.200, 277.472 827.079, 275.636 819.232 C 273.800 811.385, 272.118 804.790, 271.899 804.577 C 271.679 804.364, 256.425 807.704, 238 812 C 219.575 816.296, 204.417 819.733, 204.316 819.638 C 204.215 819.543, 207.496 805.074, 211.606 787.483 C 215.717 769.892, 219.174 754.657, 219.290 753.626 C 219.472 751.998, 217.416 751.258, 203.670 748.003 C 192.956 745.466, 187.725 744.618, 187.484 745.377 M 672.500 787.693 C 670.300 789.008, 662.702 793.023, 655.616 796.616 C 648.531 800.209, 637.956 805.092, 632.116 807.467 C 626.277 809.843, 615.875 813.598, 609 815.813 C 602.125 818.028, 594.813 820.151, 592.750 820.531 C 590.688 820.911, 589 821.633, 589 822.134 C 589 822.636, 590.643 829.673, 592.651 837.773 C 594.659 845.873, 596.456 852.685, 596.645 852.911 C 596.833 853.136, 599.504 852.758, 602.579 852.070 C 605.654 851.382, 613.644 849.019, 620.335 846.820 C 627.026 844.620, 638.125 840.547, 645 837.769 C 651.875 834.991, 662.225 830.350, 668 827.456 C 673.775 824.563, 681.968 820.209, 686.207 817.782 C 693.915 813.368, 693.915 813.368, 685.873 799.934 C 681.449 792.545, 677.531 786.231, 677.165 785.901 C 676.799 785.572, 674.700 786.379, 672.500 787.693 M 325.580 791.572 C 312.973 794.561, 302.438 797.229, 302.167 797.500 C 301.896 797.771, 303.197 804.796, 305.058 813.112 C 306.919 821.428, 308.962 828.432, 309.597 828.676 C 310.232 828.919, 317.624 827.517, 326.023 825.559 C 334.423 823.602, 342.002 822, 342.866 822 C 343.731 822, 349.852 824.675, 356.469 827.945 C 363.086 831.215, 374.213 836.153, 381.197 838.919 C 388.180 841.685, 400.330 845.942, 408.197 848.379 C 416.063 850.815, 423.592 852.964, 424.928 853.155 C 427.269 853.488, 427.491 852.965, 431.154 838.500 C 433.243 830.250, 434.790 823.036, 434.592 822.469 C 434.393 821.901, 431.816 820.825, 428.865 820.077 C 425.914 819.329, 417.875 816.821, 411 814.504 C 404.125 812.187, 394.544 808.645, 389.710 806.634 C 384.875 804.622, 376.078 800.548, 370.160 797.580 C 364.242 794.612, 357.040 790.792, 354.156 789.092 C 351.272 787.391, 348.819 786.031, 348.706 786.068 C 348.593 786.106, 338.186 788.582, 325.580 791.572 M 463.944 829.105 C 463.914 829.872, 462.845 837.025, 461.569 845 C 460.294 852.975, 459.319 859.588, 459.404 859.695 C 459.488 859.803, 462.470 860.341, 466.029 860.890 C 469.588 861.440, 479.700 862.425, 488.500 863.080 C 498.144 863.797, 511.650 864.019, 522.500 863.639 C 532.400 863.291, 544.550 862.546, 549.500 861.983 C 554.450 861.420, 559.890 860.707, 561.590 860.398 C 564.679 859.838, 564.679 859.838, 562.319 844.232 C 561.022 835.649, 559.745 828.412, 559.483 828.150 C 559.221 827.888, 553.943 828.227, 547.753 828.904 C 541.564 829.581, 529.300 830.386, 520.500 830.692 C 511.700 830.999, 498.425 830.750, 491 830.139 C 483.575 829.528, 474.462 828.731, 470.750 828.369 C 465.341 827.842, 463.989 827.988, 463.944 829.105" stroke="none" fill="#3474f4" fill-rule="evenodd"/></svg>